<svg width="537" height="372" viewBox="0 0 537 372" fill="none" xmlns="http://www.w3.org/2000/svg">
<g filter="url(#filter0_ddddd_745_503)">
<path d="M214.278 208.626L166.24 219.749C165.472 219.94 164.923 220.624 164.923 221.416V331.145C164.923 332.074 165.691 332.839 166.624 332.839C167.557 332.839 168.325 332.074 168.325 331.145V222.783L212.961 212.452V225.434L184.402 232.047C183.633 232.239 183.085 232.922 183.085 233.714V268.45C183.085 268.97 183.332 269.462 183.716 269.79C184.127 270.118 184.648 270.227 185.17 270.118L206.514 265.198V278.18L184.402 283.263C183.633 283.454 183.085 284.138 183.085 284.93V331.145L171.535 333.768C170.629 333.987 170.053 334.889 170.245 335.818C170.437 336.611 171.123 337.13 171.919 337.13C172.056 337.13 172.166 337.13 172.303 337.075L185.17 334.124C185.938 333.96 186.487 333.249 186.487 332.456V286.215L208.599 281.131C209.367 280.94 209.916 280.257 209.916 279.464V262.985C209.916 262.465 209.669 261.973 209.285 261.645C208.873 261.317 208.352 261.208 207.831 261.317L186.487 266.237V235.026L215.046 228.413C215.814 228.221 216.363 227.538 216.363 226.745V210.266C216.363 209.746 216.116 209.254 215.732 208.927C215.32 208.626 214.799 208.517 214.278 208.626Z" fill="white"/>
<path d="M214.278 208.626L166.24 219.749C165.472 219.94 164.923 220.624 164.923 221.416V331.145C164.923 332.074 165.691 332.839 166.624 332.839C167.557 332.839 168.325 332.074 168.325 331.145V222.783L212.961 212.452V225.434L184.402 232.047C183.633 232.239 183.085 232.922 183.085 233.714V268.45C183.085 268.97 183.332 269.462 183.716 269.79C184.127 270.118 184.648 270.227 185.17 270.118L206.514 265.198V278.18L184.402 283.263C183.633 283.454 183.085 284.138 183.085 284.93V331.145L171.535 333.768C170.629 333.987 170.053 334.889 170.245 335.818C170.437 336.611 171.123 337.13 171.919 337.13C172.056 337.13 172.166 337.13 172.303 337.075L185.17 334.124C185.938 333.96 186.487 333.249 186.487 332.456V286.215L208.599 281.131C209.367 280.94 209.916 280.257 209.916 279.464V262.985C209.916 262.465 209.669 261.973 209.285 261.645C208.873 261.317 208.352 261.208 207.831 261.317L186.487 266.237V235.026L215.046 228.413C215.814 228.221 216.363 227.538 216.363 226.745V210.266C216.363 209.746 216.116 209.254 215.732 208.927C215.32 208.626 214.799 208.517 214.278 208.626Z" fill="#00FFD1"/>
<path d="M241.576 257.682C241.713 257.682 241.823 257.682 241.96 257.627L249.066 255.988C257.406 254.075 261.274 248.855 261.274 239.617V228.221C261.274 223.001 260.204 219.721 257.9 217.89C255.979 216.36 253.373 216.032 249.916 216.824L241.165 218.847C240.396 219.038 239.848 219.721 239.848 220.514V255.96C239.848 256.48 240.095 256.972 240.479 257.3C240.808 257.546 241.192 257.682 241.576 257.682ZM243.277 221.88L250.712 220.159C253.071 219.612 254.745 219.749 255.787 220.569C257.159 221.662 257.872 224.231 257.872 228.221V239.617C257.872 247.215 255.019 251.123 248.298 252.681L243.304 253.829V221.88H243.277Z" fill="white"/>
<path d="M241.576 257.682C241.713 257.682 241.823 257.682 241.96 257.627L249.066 255.988C257.406 254.075 261.274 248.855 261.274 239.617V228.221C261.274 223.001 260.204 219.721 257.9 217.89C255.979 216.36 253.373 216.032 249.916 216.824L241.165 218.847C240.396 219.038 239.848 219.721 239.848 220.514V255.96C239.848 256.48 240.095 256.972 240.479 257.3C240.808 257.546 241.192 257.682 241.576 257.682ZM243.277 221.88L250.712 220.159C253.071 219.612 254.745 219.749 255.787 220.569C257.159 221.662 257.872 224.231 257.872 228.221V239.617C257.872 247.215 255.019 251.123 248.298 252.681L243.304 253.829V221.88H243.277Z" fill="#00FFD1"/>
<path d="M279.6 297.119V279.3C279.6 271.21 278.475 260.497 269.477 256.78C276.171 250.877 279.436 242.514 279.436 231.309V222.236C279.436 212.643 277.159 206.193 272.467 202.476C267.639 198.65 260.423 197.912 250.41 200.235L227.09 205.647C226.185 205.865 225.609 206.767 225.801 207.696C226.02 208.598 226.925 209.172 227.858 208.981L251.178 203.57C260.094 201.492 266.377 202.012 270.327 205.155C274.141 208.161 276.006 213.763 276.006 222.236V231.309C276.006 242.733 272.357 250.85 264.84 256.097C264.264 256.48 264.017 257.19 264.154 257.846C264.292 258.502 264.84 259.021 265.499 259.158C272.879 260.552 276.171 266.756 276.171 279.3V297.119C276.171 301.956 276.281 305.837 277.543 309.472L262.481 312.915C261.822 310.893 261.438 308.488 261.438 301.109V282.962C261.438 276.622 260.176 272.659 257.515 270.527C255.211 268.696 251.919 268.313 247.474 269.352L241.192 270.8C240.423 270.992 239.875 271.675 239.875 272.468V318.081L225.115 321.442V213.763C225.115 212.834 224.347 212.069 223.414 212.069C222.481 212.069 221.713 212.834 221.713 213.763V323.574C221.713 324.093 221.96 324.585 222.344 324.913C222.646 325.159 223.03 325.296 223.414 325.296C223.551 325.296 223.661 325.296 223.798 325.241L241.96 321.087C242.728 320.923 243.277 320.212 243.277 319.42V273.807L248.215 272.659C251.589 271.894 253.949 272.058 255.375 273.178C257.159 274.599 258.009 277.769 258.009 282.935V301.082C258.009 310.62 258.695 312.505 259.765 315.457C260.067 316.277 260.917 316.742 261.768 316.55L280.259 312.314C280.752 312.205 281.191 311.85 281.411 311.412C281.63 310.948 281.63 310.401 281.411 309.936C279.737 306.356 279.6 302.366 279.6 297.119Z" fill="white"/>
<path d="M279.6 297.119V279.3C279.6 271.21 278.475 260.497 269.477 256.78C276.171 250.877 279.436 242.514 279.436 231.309V222.236C279.436 212.643 277.159 206.193 272.467 202.476C267.639 198.65 260.423 197.912 250.41 200.235L227.09 205.647C226.185 205.865 225.609 206.767 225.801 207.696C226.02 208.598 226.925 209.172 227.858 208.981L251.178 203.57C260.094 201.492 266.377 202.012 270.327 205.155C274.141 208.161 276.006 213.763 276.006 222.236V231.309C276.006 242.733 272.357 250.85 264.84 256.097C264.264 256.48 264.017 257.19 264.154 257.846C264.292 258.502 264.84 259.021 265.499 259.158C272.879 260.552 276.171 266.756 276.171 279.3V297.119C276.171 301.956 276.281 305.837 277.543 309.472L262.481 312.915C261.822 310.893 261.438 308.488 261.438 301.109V282.962C261.438 276.622 260.176 272.659 257.515 270.527C255.211 268.696 251.919 268.313 247.474 269.352L241.192 270.8C240.423 270.992 239.875 271.675 239.875 272.468V318.081L225.115 321.442V213.763C225.115 212.834 224.347 212.069 223.414 212.069C222.481 212.069 221.713 212.834 221.713 213.763V323.574C221.713 324.093 221.96 324.585 222.344 324.913C222.646 325.159 223.03 325.296 223.414 325.296C223.551 325.296 223.661 325.296 223.798 325.241L241.96 321.087C242.728 320.923 243.277 320.212 243.277 319.42V273.807L248.215 272.659C251.589 271.894 253.949 272.058 255.375 273.178C257.159 274.599 258.009 277.769 258.009 282.935V301.082C258.009 310.62 258.695 312.505 259.765 315.457C260.067 316.277 260.917 316.742 261.768 316.55L280.259 312.314C280.752 312.205 281.191 311.85 281.411 311.412C281.63 310.948 281.63 310.401 281.411 309.936C279.737 306.356 279.6 302.366 279.6 297.119Z" fill="#00FFD1"/>
<path d="M307.556 186.981L289.394 191.189C288.626 191.381 288.077 192.064 288.077 192.856V303.077C288.077 304.006 288.845 304.771 289.778 304.771C290.711 304.771 291.479 304.006 291.479 303.077V194.196L306.239 190.779V302.913L294.415 305.619C293.482 305.837 292.933 306.739 293.125 307.668C293.317 308.461 294.003 308.98 294.799 308.98C294.936 308.98 295.046 308.953 295.183 308.925L308.324 305.919C309.092 305.755 309.641 305.045 309.641 304.252V188.62C309.641 188.101 309.394 187.609 308.982 187.281C308.598 186.981 308.077 186.844 307.556 186.981Z" fill="white"/>
<path d="M307.556 186.981L289.394 191.189C288.626 191.381 288.077 192.064 288.077 192.856V303.077C288.077 304.006 288.845 304.771 289.778 304.771C290.711 304.771 291.479 304.006 291.479 303.077V194.196L306.239 190.779V302.913L294.415 305.619C293.482 305.837 292.933 306.739 293.125 307.668C293.317 308.461 294.003 308.98 294.799 308.98C294.936 308.98 295.046 308.953 295.183 308.925L308.324 305.919C309.092 305.755 309.641 305.045 309.641 304.252V188.62C309.641 188.101 309.394 187.609 308.982 187.281C308.598 186.981 308.077 186.844 307.556 186.981Z" fill="#00FFD1"/>
<path d="M339.682 282.197L349.915 279.847C357.021 278.207 360.477 273.288 360.477 264.816V204.608C360.477 199.853 359.38 196.71 357.158 194.934C355.21 193.403 352.576 193.048 349.119 193.84L338.886 196.218C338.118 196.409 337.569 197.093 337.569 197.885V280.557C337.569 281.077 337.816 281.569 338.2 281.897C338.502 282.142 338.886 282.279 339.27 282.279C339.435 282.252 339.572 282.252 339.682 282.197ZM341.026 199.224L349.942 197.147C352.329 196.601 354.003 196.737 355.073 197.585C356.417 198.65 357.103 201.001 357.103 204.581V264.816C357.103 271.648 354.661 275.283 349.174 276.54L341.026 278.398V199.224Z" fill="white"/>
<path d="M339.682 282.197L349.915 279.847C357.021 278.207 360.477 273.288 360.477 264.816V204.608C360.477 199.853 359.38 196.71 357.158 194.934C355.21 193.403 352.576 193.048 349.119 193.84L338.886 196.218C338.118 196.409 337.569 197.093 337.569 197.885V280.557C337.569 281.077 337.816 281.569 338.2 281.897C338.502 282.142 338.886 282.279 339.27 282.279C339.435 282.252 339.572 282.252 339.682 282.197ZM341.026 199.224L349.942 197.147C352.329 196.601 354.003 196.737 355.073 197.585C356.417 198.65 357.103 201.001 357.103 204.581V264.816C357.103 271.648 354.661 275.283 349.174 276.54L341.026 278.398V199.224Z" fill="#00FFD1"/>
<path d="M370.93 179.902C365.965 175.967 358.749 175.065 349.476 177.224L325.828 182.717C324.922 182.936 324.346 183.838 324.566 184.767C324.785 185.669 325.691 186.243 326.623 186.024L350.272 180.531C358.475 178.618 364.703 179.301 368.818 182.553C373.098 185.915 375.265 192.201 375.265 201.22V259.814C375.265 277.907 366.596 289.084 349.504 292.992L322.865 299.087V190.807C322.865 189.878 322.097 189.113 321.164 189.113C320.231 189.113 319.463 189.878 319.463 190.807V301.246C319.463 301.765 319.71 302.257 320.094 302.585C320.396 302.831 320.78 302.968 321.164 302.968C321.301 302.968 321.411 302.968 321.548 302.913L350.272 296.327C368.845 292.063 378.667 279.437 378.667 259.814V201.22C378.667 191.108 376.061 183.947 370.93 179.902Z" fill="white"/>
<path d="M370.93 179.902C365.965 175.967 358.749 175.065 349.476 177.224L325.828 182.717C324.922 182.936 324.346 183.838 324.566 184.767C324.785 185.669 325.691 186.243 326.623 186.024L350.272 180.531C358.475 178.618 364.703 179.301 368.818 182.553C373.098 185.915 375.265 192.201 375.265 201.22V259.814C375.265 277.907 366.596 289.084 349.504 292.992L322.865 299.087V190.807C322.865 189.878 322.097 189.113 321.164 189.113C320.231 189.113 319.463 189.878 319.463 190.807V301.246C319.463 301.765 319.71 302.257 320.094 302.585C320.396 302.831 320.78 302.968 321.164 302.968C321.301 302.968 321.411 302.968 321.548 302.913L350.272 296.327C368.845 292.063 378.667 279.437 378.667 259.814V201.22C378.667 191.108 376.061 183.947 370.93 179.902Z" fill="#00FFD1"/>
<path d="M414.442 182.689C414.415 182.689 414.415 182.689 414.442 182.689C413.592 182.689 412.878 183.318 412.741 184.138L403.989 244.837C403.907 245.383 404.099 245.957 404.511 246.34C404.84 246.641 405.251 246.777 405.663 246.777C405.8 246.777 405.91 246.777 406.047 246.723L423.55 242.678C424.428 242.486 424.977 241.639 424.84 240.765L416.088 184.11C415.978 183.318 415.265 182.689 414.442 182.689ZM407.721 242.869L414.497 195.971L421.273 239.753L407.721 242.869Z" fill="white"/>
<path d="M414.442 182.689C414.415 182.689 414.415 182.689 414.442 182.689C413.592 182.689 412.878 183.318 412.741 184.138L403.989 244.837C403.907 245.383 404.099 245.957 404.511 246.34C404.84 246.641 405.251 246.777 405.663 246.777C405.8 246.777 405.91 246.777 406.047 246.723L423.55 242.678C424.428 242.486 424.977 241.639 424.84 240.765L416.088 184.11C415.978 183.318 415.265 182.689 414.442 182.689ZM407.721 242.869L414.497 195.971L421.273 239.753L407.721 242.869Z" fill="#00FFD1"/>
<path d="M429.146 163.669C428.213 163.833 427.582 164.707 427.747 165.636L445.196 271.074L430.216 274.518L427.363 255.988C427.281 255.524 427.034 255.114 426.622 254.84C426.238 254.567 425.744 254.485 425.278 254.594L403.001 259.732C402.315 259.896 401.794 260.443 401.684 261.153L398.721 281.76L385.635 284.766L403.577 168.178L424.153 163.368C425.058 163.149 425.635 162.248 425.415 161.318C425.196 160.416 424.263 159.843 423.358 160.061L401.657 165.117C400.971 165.281 400.449 165.828 400.367 166.511L381.876 286.734C381.794 287.281 381.986 287.855 382.397 288.237C382.727 288.538 383.138 288.702 383.55 288.702C383.687 288.702 383.797 288.702 383.934 288.647L400.614 284.821C401.3 284.657 401.821 284.11 401.931 283.4L404.894 262.793L424.263 258.339L427.116 276.868C427.198 277.333 427.445 277.743 427.857 278.016C428.241 278.289 428.735 278.371 429.201 278.262L447.528 274.053C448.405 273.862 448.982 273.015 448.817 272.113L431.122 165.117C430.957 164.161 430.079 163.532 429.146 163.669Z" fill="white"/>
<path d="M429.146 163.669C428.213 163.833 427.582 164.707 427.747 165.636L445.196 271.074L430.216 274.518L427.363 255.988C427.281 255.524 427.034 255.114 426.622 254.84C426.238 254.567 425.744 254.485 425.278 254.594L403.001 259.732C402.315 259.896 401.794 260.443 401.684 261.153L398.721 281.76L385.635 284.766L403.577 168.178L424.153 163.368C425.058 163.149 425.635 162.248 425.415 161.318C425.196 160.416 424.263 159.843 423.358 160.061L401.657 165.117C400.971 165.281 400.449 165.828 400.367 166.511L381.876 286.734C381.794 287.281 381.986 287.855 382.397 288.237C382.727 288.538 383.138 288.702 383.55 288.702C383.687 288.702 383.797 288.702 383.934 288.647L400.614 284.821C401.3 284.657 401.821 284.11 401.931 283.4L404.894 262.793L424.263 258.339L427.116 276.868C427.198 277.333 427.445 277.743 427.857 278.016C428.241 278.289 428.735 278.371 429.201 278.262L447.528 274.053C448.405 273.862 448.982 273.015 448.817 272.113L431.122 165.117C430.957 164.161 430.079 163.532 429.146 163.669Z" fill="#00FFD1"/>
<path d="M506.837 142.19C506.426 141.753 505.795 141.589 505.219 141.725L487.88 145.77C487.249 145.907 486.755 146.399 486.618 147.027L474.3 196.931L462.174 153.45C461.927 152.575 461.021 152.029 460.143 152.247L441.158 156.675C440.692 156.784 440.308 157.085 440.061 157.495C439.814 157.905 439.787 158.396 439.924 158.861L462.805 230.957V264.517C462.805 265.447 463.573 266.212 464.505 266.212C465.438 266.212 466.206 265.447 466.206 264.517V230.683C466.206 230.519 466.179 230.328 466.124 230.164L443.737 159.572L459.348 155.937L472.791 204.119C473.01 204.857 473.614 205.376 474.464 205.376C475.232 205.376 475.918 204.829 476.11 204.092L489.718 148.886L503.243 145.743L481.049 226.092C481.021 226.229 480.994 226.393 480.994 226.557V263.752L468.676 266.594C467.77 266.813 467.194 267.715 467.386 268.644C467.578 269.437 468.264 269.956 469.06 269.956C469.197 269.956 469.307 269.929 469.444 269.901L483.079 266.758C483.847 266.567 484.396 265.884 484.396 265.091V226.72L507.276 143.83C507.413 143.256 507.249 142.627 506.837 142.19Z" fill="white"/>
<path d="M506.837 142.19C506.426 141.753 505.795 141.589 505.219 141.725L487.88 145.77C487.249 145.907 486.755 146.399 486.618 147.027L474.3 196.931L462.174 153.45C461.927 152.575 461.021 152.029 460.143 152.247L441.158 156.675C440.692 156.784 440.308 157.085 440.061 157.495C439.814 157.905 439.787 158.396 439.924 158.861L462.805 230.957V264.517C462.805 265.447 463.573 266.212 464.505 266.212C465.438 266.212 466.206 265.447 466.206 264.517V230.683C466.206 230.519 466.179 230.328 466.124 230.164L443.737 159.572L459.348 155.937L472.791 204.119C473.01 204.857 473.614 205.376 474.464 205.376C475.232 205.376 475.918 204.829 476.11 204.092L489.718 148.886L503.243 145.743L481.049 226.092C481.021 226.229 480.994 226.393 480.994 226.557V263.752L468.676 266.594C467.77 266.813 467.194 267.715 467.386 268.644C467.578 269.437 468.264 269.956 469.06 269.956C469.197 269.956 469.307 269.929 469.444 269.901L483.079 266.758C483.847 266.567 484.396 265.884 484.396 265.091V226.72L507.276 143.83C507.413 143.256 507.249 142.627 506.837 142.19Z" fill="#00FFD1"/>
</g>
<g filter="url(#filter1_ddddd_745_503)">
<path d="M49.5301 154.443C49.6672 154.443 49.777 154.443 49.9141 154.388L57.7879 152.612C66.9237 150.562 71.2035 144.878 71.2035 134.766V127.66C71.2035 121.948 70.0513 118.368 67.5547 116.373C65.4696 114.706 62.6439 114.323 58.8853 115.17L49.2008 117.357C48.3778 117.521 47.8291 118.231 47.8291 119.024V152.721C47.8291 153.241 48.076 153.732 48.4601 154.06C48.7893 154.306 49.146 154.443 49.5301 154.443ZM51.2584 120.363L59.626 118.477C62.3147 117.876 64.2077 118.04 65.4148 119.024C66.9786 120.281 67.7742 123.178 67.7742 127.66V134.766C67.7742 143.265 64.5643 147.611 57.0472 149.305L51.2584 150.59V120.363Z" fill="white"/>
<path d="M49.5301 154.443C49.6672 154.443 49.777 154.443 49.9141 154.388L57.7879 152.612C66.9237 150.562 71.2035 144.878 71.2035 134.766V127.66C71.2035 121.948 70.0513 118.368 67.5547 116.373C65.4696 114.706 62.6439 114.323 58.8853 115.17L49.2008 117.357C48.3778 117.521 47.8291 118.231 47.8291 119.024V152.721C47.8291 153.241 48.076 153.732 48.4601 154.06C48.7893 154.306 49.146 154.443 49.5301 154.443ZM51.2584 120.363L59.626 118.477C62.3147 117.876 64.2077 118.04 65.4148 119.024C66.9786 120.281 67.7742 123.178 67.7742 127.66V134.766C67.7742 143.265 64.5643 147.611 57.0472 149.305L51.2584 150.59V120.363Z" fill="url(#paint0_linear_745_503)"/>
<path d="M47.8291 210.141C47.8291 210.66 48.076 211.152 48.4601 211.48C48.7619 211.726 49.146 211.863 49.5301 211.863C49.6672 211.863 49.777 211.863 49.9141 211.808L61.4367 209.239C69.5574 207.435 73.2063 202.325 73.2063 192.677V181.554C73.2063 174.695 71.9717 170.677 69.2008 168.463C66.7591 166.523 63.2474 166.168 58.1446 167.316L49.1734 169.311C48.3778 169.475 47.8291 170.158 47.8291 170.95V210.141ZM51.2584 172.317L58.8853 170.595C62.9182 169.693 65.5245 169.857 67.0609 171.087C68.899 172.535 69.7769 175.952 69.7769 181.527V192.65C69.7769 201.969 66.1281 204.675 60.696 205.905L51.2584 208.009V172.317Z" fill="white"/>
<path d="M47.8291 210.141C47.8291 210.66 48.076 211.152 48.4601 211.48C48.7619 211.726 49.146 211.863 49.5301 211.863C49.6672 211.863 49.777 211.863 49.9141 211.808L61.4367 209.239C69.5574 207.435 73.2063 202.325 73.2063 192.677V181.554C73.2063 174.695 71.9717 170.677 69.2008 168.463C66.7591 166.523 63.2474 166.168 58.1446 167.316L49.1734 169.311C48.3778 169.475 47.8291 170.158 47.8291 170.95V210.141ZM51.2584 172.317L58.8853 170.595C62.9182 169.693 65.5245 169.857 67.0609 171.087C68.899 172.535 69.7769 175.952 69.7769 181.527V192.65C69.7769 201.969 66.1281 204.675 60.696 205.905L51.2584 208.009V172.317Z" fill="url(#paint1_linear_745_503)"/>
<path d="M189.473 159.335C189.611 159.335 189.72 159.335 189.858 159.281L209.254 154.935C210.132 154.744 210.708 153.897 210.571 153.022L200.886 90.5193C200.749 89.6994 200.036 89.0708 199.185 89.0708C198.335 89.0708 197.622 89.6994 197.512 90.5193L187.8 157.368C187.718 157.914 187.91 158.488 188.321 158.871C188.65 159.171 189.062 159.335 189.473 159.335ZM199.24 102.298L206.949 151.984L191.531 155.427L199.24 102.298Z" fill="white"/>
<path d="M189.473 159.335C189.611 159.335 189.72 159.335 189.858 159.281L209.254 154.935C210.132 154.744 210.708 153.897 210.571 153.022L200.886 90.5193C200.749 89.6994 200.036 89.0708 199.185 89.0708C198.335 89.0708 197.622 89.6994 197.512 90.5193L187.8 157.368C187.718 157.914 187.91 158.488 188.321 158.871C188.65 159.171 189.062 159.335 189.473 159.335ZM199.24 102.298L206.949 151.984L191.531 155.427L199.24 102.298Z" fill="url(#paint2_linear_745_503)"/>
<path d="M81.7022 153.514C89.0272 147.147 92.5938 138.019 92.5938 125.693V121.129C92.5938 110.607 90.0972 103.501 84.9669 99.4018C79.672 95.1657 71.7159 94.3185 60.6871 96.8055L30.3169 103.638C29.5487 103.802 29 104.512 29 105.305V227.386C29 228.316 29.7682 229.081 30.701 229.081C31.6337 229.081 32.4019 228.316 32.4019 227.386V106.671L61.4279 100.14C71.3867 97.8986 78.3826 98.5272 82.7996 102.08C87.0794 105.469 89.137 111.727 89.137 121.156V125.72C89.137 138.51 85.2412 147.174 76.8736 152.941C76.2975 153.323 76.0232 154.034 76.1878 154.717C76.3524 155.4 76.9011 155.919 77.587 156.029C86.8325 157.559 91.1672 164.638 91.1672 178.357V188.742C91.1672 207.654 81.0712 219.898 61.9491 224.162L35.6941 230.01C34.7613 230.229 34.1852 231.131 34.4046 232.032C34.5693 232.825 35.2826 233.372 36.0782 233.372C36.2153 233.372 36.3251 233.372 36.4623 233.344L62.7173 227.496C83.5677 222.85 94.5965 209.431 94.5965 188.742V178.357C94.5965 164.61 90.3715 156.439 81.7022 153.514Z" fill="white"/>
<path d="M81.7022 153.514C89.0272 147.147 92.5938 138.019 92.5938 125.693V121.129C92.5938 110.607 90.0972 103.501 84.9669 99.4018C79.672 95.1657 71.7159 94.3185 60.6871 96.8055L30.3169 103.638C29.5487 103.802 29 104.512 29 105.305V227.386C29 228.316 29.7682 229.081 30.701 229.081C31.6337 229.081 32.4019 228.316 32.4019 227.386V106.671L61.4279 100.14C71.3867 97.8986 78.3826 98.5272 82.7996 102.08C87.0794 105.469 89.137 111.727 89.137 121.156V125.72C89.137 138.51 85.2412 147.174 76.8736 152.941C76.2975 153.323 76.0232 154.034 76.1878 154.717C76.3524 155.4 76.9011 155.919 77.587 156.029C86.8325 157.559 91.1672 164.638 91.1672 178.357V188.742C91.1672 207.654 81.0712 219.898 61.9491 224.162L35.6941 230.01C34.7613 230.229 34.1852 231.131 34.4046 232.032C34.5693 232.825 35.2826 233.372 36.0782 233.372C36.2153 233.372 36.3251 233.372 36.4623 233.344L62.7173 227.496C83.5677 222.85 94.5965 209.431 94.5965 188.742V178.357C94.5965 164.61 90.3715 156.439 81.7022 153.514Z" fill="url(#paint3_linear_745_503)"/>
<path d="M157.807 184.506L126.778 191.448V84.0699C126.778 83.5507 126.531 83.0587 126.147 82.7308C125.736 82.4028 125.215 82.2935 124.693 82.4028L108.534 86.0377C107.629 86.2563 107.025 87.1582 107.245 88.06C107.464 88.9619 108.37 89.5358 109.275 89.3445L123.349 86.1743V193.525C123.349 194.044 123.596 194.536 123.98 194.864C124.392 195.192 124.913 195.302 125.407 195.192L156.435 188.25V203.036L106.614 214.159V94.4825C106.614 93.5533 105.846 92.7881 104.913 92.7881C103.98 92.7881 103.212 93.5533 103.212 94.4825V216.291C103.212 216.81 103.459 217.302 103.843 217.63C104.145 217.876 104.529 218.012 104.913 218.012C105.023 218.012 105.16 218.012 105.297 217.958L158.52 206.097C159.289 205.933 159.865 205.222 159.865 204.43V186.173C159.865 185.654 159.618 185.162 159.234 184.834C158.85 184.506 158.328 184.397 157.807 184.506Z" fill="white"/>
<path d="M157.807 184.506L126.778 191.448V84.0699C126.778 83.5507 126.531 83.0587 126.147 82.7308C125.736 82.4028 125.215 82.2935 124.693 82.4028L108.534 86.0377C107.629 86.2563 107.025 87.1582 107.245 88.06C107.464 88.9619 108.37 89.5358 109.275 89.3445L123.349 86.1743V193.525C123.349 194.044 123.596 194.536 123.98 194.864C124.392 195.192 124.913 195.302 125.407 195.192L156.435 188.25V203.036L106.614 214.159V94.4825C106.614 93.5533 105.846 92.7881 104.913 92.7881C103.98 92.7881 103.212 93.5533 103.212 94.4825V216.291C103.212 216.81 103.459 217.302 103.843 217.63C104.145 217.876 104.529 218.012 104.913 218.012C105.023 218.012 105.16 218.012 105.297 217.958L158.52 206.097C159.289 205.933 159.865 205.222 159.865 204.43V186.173C159.865 185.654 159.618 185.162 159.234 184.834C158.85 184.506 158.328 184.397 157.807 184.506Z" fill="url(#paint4_linear_745_503)"/>
<path d="M217.147 63.1622C216.763 62.8889 216.269 62.8069 215.83 62.9162L191.139 68.4642C190.234 68.6828 189.63 69.5847 189.85 70.4865C190.069 71.4157 190.974 71.9623 191.88 71.771L214.788 66.6331L234.705 186.61L217.751 190.382L214.541 169.748C214.459 169.283 214.212 168.873 213.828 168.6C213.443 168.327 212.95 168.245 212.483 168.354L187.792 173.875C187.106 174.039 186.585 174.585 186.475 175.296L183.156 198.116L168.258 201.45L187.49 77.5649C187.627 76.6357 186.996 75.7612 186.064 75.6245C185.131 75.4879 184.253 76.1164 184.116 77.0457L164.582 203.391C164.5 203.937 164.692 204.511 165.103 204.894C165.433 205.194 165.844 205.358 166.283 205.358C166.393 205.358 166.53 205.358 166.667 205.304L185.131 201.177C185.817 201.013 186.338 200.466 186.448 199.756L189.74 176.935L211.496 172.071L214.705 192.705C214.788 193.169 215.035 193.579 215.419 193.852C215.803 194.126 216.297 194.208 216.763 194.098L237.065 189.562C237.943 189.37 238.519 188.523 238.382 187.621L217.888 64.2827C217.778 63.8454 217.531 63.4355 217.147 63.1622Z" fill="white"/>
<path d="M217.147 63.1622C216.763 62.8889 216.269 62.8069 215.83 62.9162L191.139 68.4642C190.234 68.6828 189.63 69.5847 189.85 70.4865C190.069 71.4157 190.974 71.9623 191.88 71.771L214.788 66.6331L234.705 186.61L217.751 190.382L214.541 169.748C214.459 169.283 214.212 168.873 213.828 168.6C213.443 168.327 212.95 168.245 212.483 168.354L187.792 173.875C187.106 174.039 186.585 174.585 186.475 175.296L183.156 198.116L168.258 201.45L187.49 77.5649C187.627 76.6357 186.996 75.7612 186.064 75.6245C185.131 75.4879 184.253 76.1164 184.116 77.0457L164.582 203.391C164.5 203.937 164.692 204.511 165.103 204.894C165.433 205.194 165.844 205.358 166.283 205.358C166.393 205.358 166.53 205.358 166.667 205.304L185.131 201.177C185.817 201.013 186.338 200.466 186.448 199.756L189.74 176.935L211.496 172.071L214.705 192.705C214.788 193.169 215.035 193.579 215.419 193.852C215.803 194.126 216.297 194.208 216.763 194.098L237.065 189.562C237.943 189.37 238.519 188.523 238.382 187.621L217.888 64.2827C217.778 63.8454 217.531 63.4355 217.147 63.1622Z" fill="url(#paint5_linear_745_503)"/>
<path d="M297.284 51.6295C291.742 47.2295 283.923 46.1363 273.964 48.3773C253.772 52.9414 242.634 67.3441 242.634 88.9618V155.509C242.634 160.511 243.237 164.938 244.417 168.682C244.691 169.584 245.652 170.076 246.557 169.776C247.462 169.502 247.956 168.546 247.654 167.644C246.584 164.255 246.036 160.155 246.036 155.509V88.9618C246.036 68.7926 255.94 55.9203 274.705 51.6842C283.566 49.6891 290.453 50.5637 295.144 54.2805C300.11 58.2433 302.634 65.3763 302.634 75.4883V86.5841L287.023 90.0823V78.4946C287.023 73.3019 285.816 69.8311 283.32 67.8633C281.18 66.1689 278.217 65.7316 274.513 66.5515C266.722 68.3006 262.743 73.9032 262.743 83.1679V152.285C262.743 157.395 263.923 160.839 266.365 162.779C268.477 164.474 271.468 164.911 275.254 164.064C283.045 162.315 287.023 156.794 287.023 147.639V130.694L302.634 127.196V142.091C302.634 162.26 292.73 175.159 273.964 179.341C263.841 181.609 256.351 180.133 251.715 174.968C251.084 174.258 250.014 174.203 249.3 174.832C248.587 175.46 248.532 176.526 249.163 177.237C253.086 181.582 258.519 183.768 265.432 183.768C268.285 183.768 271.385 183.386 274.705 182.648C294.897 178.138 306.036 163.736 306.036 142.091V125.064C306.036 124.545 305.789 124.053 305.405 123.725C304.993 123.397 304.472 123.288 303.95 123.397L284.938 127.661C284.17 127.825 283.594 128.535 283.594 129.328V147.611C283.594 155.263 280.796 159.308 274.513 160.729C271.77 161.331 269.794 161.139 268.505 160.128C266.941 158.898 266.173 156.247 266.173 152.285V83.1406C266.173 75.461 269.053 71.2249 275.254 69.8311C277.915 69.2298 279.918 69.4485 281.18 70.4597C282.771 71.7442 283.594 74.4225 283.594 78.4399V92.1594C283.594 92.6786 283.841 93.1706 284.225 93.4985C284.636 93.8265 285.158 93.9358 285.679 93.8265L304.691 89.5631C305.459 89.3991 306.036 88.6885 306.036 87.896V75.461C306.063 64.2832 303.1 56.2483 297.284 51.6295Z" fill="white"/>
<path d="M297.284 51.6295C291.742 47.2295 283.923 46.1363 273.964 48.3773C253.772 52.9414 242.634 67.3441 242.634 88.9618V155.509C242.634 160.511 243.237 164.938 244.417 168.682C244.691 169.584 245.652 170.076 246.557 169.776C247.462 169.502 247.956 168.546 247.654 167.644C246.584 164.255 246.036 160.155 246.036 155.509V88.9618C246.036 68.7926 255.94 55.9203 274.705 51.6842C283.566 49.6891 290.453 50.5637 295.144 54.2805C300.11 58.2433 302.634 65.3763 302.634 75.4883V86.5841L287.023 90.0823V78.4946C287.023 73.3019 285.816 69.8311 283.32 67.8633C281.18 66.1689 278.217 65.7316 274.513 66.5515C266.722 68.3006 262.743 73.9032 262.743 83.1679V152.285C262.743 157.395 263.923 160.839 266.365 162.779C268.477 164.474 271.468 164.911 275.254 164.064C283.045 162.315 287.023 156.794 287.023 147.639V130.694L302.634 127.196V142.091C302.634 162.26 292.73 175.159 273.964 179.341C263.841 181.609 256.351 180.133 251.715 174.968C251.084 174.258 250.014 174.203 249.3 174.832C248.587 175.46 248.532 176.526 249.163 177.237C253.086 181.582 258.519 183.768 265.432 183.768C268.285 183.768 271.385 183.386 274.705 182.648C294.897 178.138 306.036 163.736 306.036 142.091V125.064C306.036 124.545 305.789 124.053 305.405 123.725C304.993 123.397 304.472 123.288 303.95 123.397L284.938 127.661C284.17 127.825 283.594 128.535 283.594 129.328V147.611C283.594 155.263 280.796 159.308 274.513 160.729C271.77 161.331 269.794 161.139 268.505 160.128C266.941 158.898 266.173 156.247 266.173 152.285V83.1406C266.173 75.461 269.053 71.2249 275.254 69.8311C277.915 69.2298 279.918 69.4485 281.18 70.4597C282.771 71.7442 283.594 74.4225 283.594 78.4399V92.1594C283.594 92.6786 283.841 93.1706 284.225 93.4985C284.636 93.8265 285.158 93.9358 285.679 93.8265L304.691 89.5631C305.459 89.3991 306.036 88.6885 306.036 87.896V75.461C306.063 64.2832 303.1 56.2483 297.284 51.6295Z" fill="url(#paint6_linear_745_503)"/>
<path d="M381.081 157.328L353.4 93.1853L381.081 30.4092C381.328 29.8079 381.246 29.1247 380.834 28.6327C380.423 28.1408 379.764 27.9222 379.133 28.0588L359.024 32.5955C358.475 32.7049 358.036 33.0875 357.817 33.5794L334.771 87.6647V40.1932C334.771 39.6739 334.524 39.182 334.14 38.854C333.729 38.5261 333.208 38.4167 332.686 38.5261L317.405 41.9696C316.5 42.1882 315.896 43.0901 316.116 43.992C316.335 44.9212 317.241 45.4678 318.146 45.2765L331.342 42.2976V96.0276C331.342 96.8475 331.918 97.5307 332.714 97.6947C333.509 97.8587 334.305 97.4487 334.634 96.6835L360.642 35.7111L376.609 32.1036L349.998 92.4748C349.806 92.912 349.806 93.404 349.998 93.8412L377.158 156.781L359.902 160.635L340.889 115.213C340.615 114.584 340.039 114.174 339.353 114.174C338.667 114.12 338.064 114.53 337.762 115.158L331.534 128.277C331.424 128.495 331.369 128.741 331.369 129.014V167.03L314.662 170.747V49.5946C314.662 48.6654 313.894 47.9001 312.961 47.9001C312.028 47.9001 311.26 48.6654 311.26 49.5946V172.851C311.26 173.37 311.507 173.862 311.891 174.19C312.193 174.436 312.577 174.573 312.961 174.573C313.098 174.573 313.208 174.573 313.345 174.518L333.454 170.036C334.223 169.872 334.799 169.162 334.799 168.369V129.37L339.216 120.078L357.295 163.286C357.624 164.051 358.448 164.461 359.243 164.297L379.902 159.678C380.395 159.569 380.807 159.241 381.054 158.804C381.273 158.312 381.301 157.793 381.081 157.328Z" fill="white"/>
<path d="M381.081 157.328L353.4 93.1853L381.081 30.4092C381.328 29.8079 381.246 29.1247 380.834 28.6327C380.423 28.1408 379.764 27.9222 379.133 28.0588L359.024 32.5955C358.475 32.7049 358.036 33.0875 357.817 33.5794L334.771 87.6647V40.1932C334.771 39.6739 334.524 39.182 334.14 38.854C333.729 38.5261 333.208 38.4167 332.686 38.5261L317.405 41.9696C316.5 42.1882 315.896 43.0901 316.116 43.992C316.335 44.9212 317.241 45.4678 318.146 45.2765L331.342 42.2976V96.0276C331.342 96.8475 331.918 97.5307 332.714 97.6947C333.509 97.8587 334.305 97.4487 334.634 96.6835L360.642 35.7111L376.609 32.1036L349.998 92.4748C349.806 92.912 349.806 93.404 349.998 93.8412L377.158 156.781L359.902 160.635L340.889 115.213C340.615 114.584 340.039 114.174 339.353 114.174C338.667 114.12 338.064 114.53 337.762 115.158L331.534 128.277C331.424 128.495 331.369 128.741 331.369 129.014V167.03L314.662 170.747V49.5946C314.662 48.6654 313.894 47.9001 312.961 47.9001C312.028 47.9001 311.26 48.6654 311.26 49.5946V172.851C311.26 173.37 311.507 173.862 311.891 174.19C312.193 174.436 312.577 174.573 312.961 174.573C313.098 174.573 313.208 174.573 313.345 174.518L333.454 170.036C334.223 169.872 334.799 169.162 334.799 168.369V129.37L339.216 120.078L357.295 163.286C357.624 164.051 358.448 164.461 359.243 164.297L379.902 159.678C380.395 159.569 380.807 159.241 381.054 158.804C381.273 158.312 381.301 157.793 381.081 157.328Z" fill="url(#paint7_linear_745_503)"/>
</g>
<defs>
<filter id="filter0_ddddd_745_503" x="135.923" y="113.678" width="400.4" height="257.451" filterUnits="userSpaceOnUse" color-interpolation-filters="sRGB">
<feFlood flood-opacity="0" result="BackgroundImageFix"/>
<feColorMatrix in="SourceAlpha" type="matrix" values="0 0 0 0 0 0 0 0 0 0 0 0 0 0 0 0 0 0 127 0" result="hardAlpha"/>
<feOffset dy="14"/>
<feGaussianBlur stdDeviation="10"/>
<feComposite in2="hardAlpha" operator="out"/>
<feColorMatrix type="matrix" values="0 0 0 0 0 0 0 0 0 1 0 0 0 0 0.819608 0 0 0 1 0"/>
<feBlend mode="normal" in2="BackgroundImageFix" result="effect1_dropShadow_745_503"/>
<feColorMatrix in="SourceAlpha" type="matrix" values="0 0 0 0 0 0 0 0 0 0 0 0 0 0 0 0 0 0 127 0" result="hardAlpha"/>
<feOffset dy="4"/>
<feGaussianBlur stdDeviation="10"/>
<feComposite in2="hardAlpha" operator="out"/>
<feColorMatrix type="matrix" values="0 0 0 0 0 0 0 0 0 1 0 0 0 0 0.819608 0 0 0 0.41 0"/>
<feBlend mode="normal" in2="effect1_dropShadow_745_503" result="effect2_dropShadow_745_503"/>
<feColorMatrix in="SourceAlpha" type="matrix" values="0 0 0 0 0 0 0 0 0 0 0 0 0 0 0 0 0 0 127 0" result="hardAlpha"/>
<feOffset dy="2"/>
<feGaussianBlur stdDeviation="2"/>
<feComposite in2="hardAlpha" operator="out"/>
<feColorMatrix type="matrix" values="0 0 0 0 0 0 0 0 0 0.391667 0 0 0 0 0.321013 0 0 0 1 0"/>
<feBlend mode="normal" in2="effect2_dropShadow_745_503" result="effect3_dropShadow_745_503"/>
<feColorMatrix in="SourceAlpha" type="matrix" values="0 0 0 0 0 0 0 0 0 0 0 0 0 0 0 0 0 0 127 0" result="hardAlpha"/>
<feOffset dy="4"/>
<feGaussianBlur stdDeviation="2"/>
<feComposite in2="hardAlpha" operator="out"/>
<feColorMatrix type="matrix" values="0 0 0 0 0 0 0 0 0 0.133333 0 0 0 0 0.125333 0 0 0 0.6 0"/>
<feBlend mode="normal" in2="effect3_dropShadow_745_503" result="effect4_dropShadow_745_503"/>
<feColorMatrix in="SourceAlpha" type="matrix" values="0 0 0 0 0 0 0 0 0 0 0 0 0 0 0 0 0 0 127 0" result="hardAlpha"/>
<feOffset dy="1"/>
<feGaussianBlur stdDeviation="14.5"/>
<feComposite in2="hardAlpha" operator="out"/>
<feColorMatrix type="matrix" values="0 0 0 0 0 0 0 0 0 1 0 0 0 0 0.819608 0 0 0 0.7 0"/>
<feBlend mode="normal" in2="effect4_dropShadow_745_503" result="effect5_dropShadow_745_503"/>
<feBlend mode="normal" in="SourceGraphic" in2="effect5_dropShadow_745_503" result="shape"/>
</filter>
<filter id="filter1_ddddd_745_503" x="0" y="0.0187988" width="410.232" height="267.353" filterUnits="userSpaceOnUse" color-interpolation-filters="sRGB">
<feFlood flood-opacity="0" result="BackgroundImageFix"/>
<feColorMatrix in="SourceAlpha" type="matrix" values="0 0 0 0 0 0 0 0 0 0 0 0 0 0 0 0 0 0 127 0" result="hardAlpha"/>
<feOffset dy="14"/>
<feGaussianBlur stdDeviation="10"/>
<feComposite in2="hardAlpha" operator="out"/>
<feColorMatrix type="matrix" values="0 0 0 0 0 0 0 0 0 1 0 0 0 0 0.819608 0 0 0 1 0"/>
<feBlend mode="normal" in2="BackgroundImageFix" result="effect1_dropShadow_745_503"/>
<feColorMatrix in="SourceAlpha" type="matrix" values="0 0 0 0 0 0 0 0 0 0 0 0 0 0 0 0 0 0 127 0" result="hardAlpha"/>
<feOffset dy="4"/>
<feGaussianBlur stdDeviation="10"/>
<feComposite in2="hardAlpha" operator="out"/>
<feColorMatrix type="matrix" values="0 0 0 0 0 0 0 0 0 1 0 0 0 0 0.819608 0 0 0 0.41 0"/>
<feBlend mode="normal" in2="effect1_dropShadow_745_503" result="effect2_dropShadow_745_503"/>
<feColorMatrix in="SourceAlpha" type="matrix" values="0 0 0 0 0 0 0 0 0 0 0 0 0 0 0 0 0 0 127 0" result="hardAlpha"/>
<feOffset dy="2"/>
<feGaussianBlur stdDeviation="2"/>
<feComposite in2="hardAlpha" operator="out"/>
<feColorMatrix type="matrix" values="0 0 0 0 0 0 0 0 0 0.391667 0 0 0 0 0.321013 0 0 0 1 0"/>
<feBlend mode="normal" in2="effect2_dropShadow_745_503" result="effect3_dropShadow_745_503"/>
<feColorMatrix in="SourceAlpha" type="matrix" values="0 0 0 0 0 0 0 0 0 0 0 0 0 0 0 0 0 0 127 0" result="hardAlpha"/>
<feOffset dy="4"/>
<feGaussianBlur stdDeviation="2"/>
<feComposite in2="hardAlpha" operator="out"/>
<feColorMatrix type="matrix" values="0 0 0 0 0 0 0 0 0 0.133333 0 0 0 0 0.125333 0 0 0 0.6 0"/>
<feBlend mode="normal" in2="effect3_dropShadow_745_503" result="effect4_dropShadow_745_503"/>
<feColorMatrix in="SourceAlpha" type="matrix" values="0 0 0 0 0 0 0 0 0 0 0 0 0 0 0 0 0 0 127 0" result="hardAlpha"/>
<feOffset dy="1"/>
<feGaussianBlur stdDeviation="14.5"/>
<feComposite in2="hardAlpha" operator="out"/>
<feColorMatrix type="matrix" values="0 0 0 0 0 0 0 0 0 1 0 0 0 0 0.819608 0 0 0 0.7 0"/>
<feBlend mode="normal" in2="effect4_dropShadow_745_503" result="effect5_dropShadow_745_503"/>
<feBlend mode="normal" in="SourceGraphic" in2="effect5_dropShadow_745_503" result="shape"/>
</filter>
<linearGradient id="paint0_linear_745_503" x1="59.5163" y1="114.735" x2="59.5163" y2="154.443" gradientUnits="userSpaceOnUse">
<stop stop-color="#C8FFC7"/>
<stop offset="1" stop-color="#00FFD1"/>
</linearGradient>
<linearGradient id="paint1_linear_745_503" x1="60.5177" y1="166.663" x2="60.5177" y2="211.863" gradientUnits="userSpaceOnUse">
<stop stop-color="#C8FFC7"/>
<stop offset="1" stop-color="#00FFD1"/>
</linearGradient>
<linearGradient id="paint2_linear_745_503" x1="199.186" y1="89.0708" x2="199.186" y2="159.335" gradientUnits="userSpaceOnUse">
<stop stop-color="#C8FFC7"/>
<stop offset="1" stop-color="#00FFD1"/>
</linearGradient>
<linearGradient id="paint3_linear_745_503" x1="61.7983" y1="95.417" x2="61.7983" y2="233.372" gradientUnits="userSpaceOnUse">
<stop stop-color="#C8FFC7"/>
<stop offset="1" stop-color="#00FFD1"/>
</linearGradient>
<linearGradient id="paint4_linear_745_503" x1="131.538" y1="82.3618" x2="131.538" y2="218.012" gradientUnits="userSpaceOnUse">
<stop stop-color="#C8FFC7"/>
<stop offset="1" stop-color="#00FFD1"/>
</linearGradient>
<linearGradient id="paint5_linear_745_503" x1="201.483" y1="62.8694" x2="201.483" y2="205.358" gradientUnits="userSpaceOnUse">
<stop stop-color="#C8FFC7"/>
<stop offset="1" stop-color="#00FFD1"/>
</linearGradient>
<linearGradient id="paint6_linear_745_503" x1="274.335" y1="47.2466" x2="274.335" y2="183.768" gradientUnits="userSpaceOnUse">
<stop stop-color="#C8FFC7"/>
<stop offset="1" stop-color="#00FFD1"/>
</linearGradient>
<linearGradient id="paint7_linear_745_503" x1="346.246" y1="28.0188" x2="346.246" y2="174.573" gradientUnits="userSpaceOnUse">
<stop stop-color="#C8FFC7"/>
<stop offset="1" stop-color="#00FFD1"/>
</linearGradient>
</defs>
</svg>
