<svg width="207" height="207" viewBox="0 0 207 207" fill="none" xmlns="http://www.w3.org/2000/svg">
<path d="M15.3026 155.956C16.1878 157.414 18.1071 157.969 19.5712 157.184C21.0354 156.399 21.4934 154.582 20.5965 153.118C2.69272 123.917 2.68745 86.5069 20.5933 55.4929C48.4386 7.2636 103.542 -7.60141 151.615 20.1535C199.688 47.9084 214.378 103.069 186.533 151.298C158.688 199.528 103.584 214.393 55.5111 186.638C54.0062 185.769 52.1196 186.208 51.3066 187.616C50.4819 189.018 51.0449 190.871 52.5614 191.747C103.796 221.327 162.439 205.638 191.992 154.45C205.997 130.194 210.117 102.879 203.599 77.5305C196.95 51.6546 179.54 29.4641 154.577 15.0513C103.342 -14.5288 44.6988 1.15996 15.1456 52.3477C-3.8182 85.167 -3.7516 124.869 15.3026 155.956Z" fill="url(#paint0_linear_567_505)"/>
<defs>
<linearGradient id="paint0_linear_567_505" x1="286.988" y1="318.449" x2="14.2633" y2="3.20206" gradientUnits="userSpaceOnUse">
<stop offset="0.770833" stop-color="#FF7979"/>
<stop offset="1" stop-color="#FDF3F1"/>
</linearGradient>
</defs>
</svg>
